<svg>
  <symbol id="covid-19" viewBox="0 0 512 512" xmlns="http://www.w3.org/2000/svg">
    <path d="m247.171875 97.101562c-4.875 0-8.828125-3.949218-8.828125-8.824218v-35.3125c0-4.875 3.953125-8.828125 8.828125-8.828125s8.828125 3.953125 8.828125 8.828125v35.3125c0 4.875-3.953125 8.824218-8.828125 8.824218zm0 0" fill="#65ddb9"/><path d="m128.574219 146.230469c-2.339844-.003907-4.585938-.933594-6.242188-2.589844l-31.214843-31.210937c-3.34375-3.464844-3.296876-8.972657.109374-12.375 3.40625-3.40625 8.910157-3.453126 12.375-.109376l31.214844 31.214844c2.523438 2.523438 3.277344 6.320313 1.910156 9.617188-1.363281 3.300781-4.582031 5.449218-8.152343 5.453125zm0 0" fill="#65ddb9"/><path d="m79.449219 264.828125h-35.3125c-4.875 0-8.828125-3.953125-8.828125-8.828125s3.953125-8.828125 8.828125-8.828125h35.3125c4.875 0 8.828125 3.953125 8.828125 8.828125s-3.953125 8.828125-8.828125 8.828125zm0 0" fill="#65ddb9"/><path d="m97.359375 414.640625c-3.570313 0-6.789063-2.152344-8.152344-5.449219-1.367187-3.296875-.613281-7.09375 1.910157-9.621094l31.214843-31.210937c3.464844-3.347656 8.96875-3.300781 12.375.105469s3.453125 8.910156.109375 12.375l-31.214844 31.214844c-1.65625 1.65625-3.902343 2.585937-6.242187 2.585937zm0 0" fill="#65ddb9"/><path d="m247.171875 467.863281c-4.875 0-8.828125-3.953125-8.828125-8.828125v-35.3125c0-4.875 3.953125-8.824218 8.828125-8.824218s8.828125 3.949218 8.828125 8.824218v35.3125c0 4.875-3.953125 8.828125-8.828125 8.828125zm0 0" fill="#65ddb9"/><path d="m396.984375 414.640625c-2.339844 0-4.585937-.929687-6.238281-2.585937l-31.214844-31.214844c-3.347656-3.464844-3.300781-8.96875.105469-12.375s8.910156-3.453125 12.375-.105469l31.214843 31.210937c2.523438 2.527344 3.277344 6.324219 1.914063 9.621094-1.367187 3.296875-4.585937 5.449219-8.15625 5.449219zm0 0" fill="#65ddb9"/><path d="m459.035156 264.828125h-44.136718c-4.878907 0-8.828126-3.953125-8.828126-8.828125s3.949219-8.828125 8.828126-8.828125h44.136718c4.875 0 8.828125 3.953125 8.828125 8.828125s-3.953125 8.828125-8.828125 8.828125zm0 0" fill="#65ddb9"/><path d="m365.769531 146.230469c-3.566406-.003907-6.785156-2.152344-8.152343-5.453125-1.367188-3.296875-.609376-7.09375 1.914062-9.617188l31.214844-31.214844c2.214844-2.292968 5.496094-3.214843 8.582031-2.40625 3.085937.808594 5.496094 3.21875 6.304687 6.304688.808594 3.085938-.113281 6.367188-2.40625 8.585938l-31.214843 31.210937c-1.65625 1.65625-3.898438 2.585937-6.242188 2.589844zm0 0" fill="#65ddb9"/><path d="m414.898438 256c0 92.632812-75.09375 167.722656-167.726563 167.722656s-167.722656-75.089844-167.722656-167.722656 75.089843-167.722656 167.722656-167.722656 167.726563 75.089844 167.726563 167.722656zm0 0" fill="#46b29d"/><path d="m247.171875 397.242188c-4.875 0-8.828125-3.953126-8.828125-8.828126s3.953125-8.828124 8.828125-8.828124c68.226563-.074219 123.515625-55.363282 123.585937-123.585938 0-4.875 3.953126-8.828125 8.828126-8.828125s8.828124 3.953125 8.828124 8.828125c-.09375 77.96875-63.273437 141.148438-141.242187 141.242188zm0 0" fill="#65ddb9"/><g fill="#14a085"><path d="m317.792969 194.207031c0 19.5-15.808594 35.308594-35.308594 35.308594-19.503906 0-35.3125-15.808594-35.3125-35.308594s15.808594-35.308593 35.3125-35.308593c19.5 0 35.308594 15.808593 35.308594 35.308593zm0 0"/><path d="m194.207031 220.691406c0 14.625-11.855469 26.480469-26.484375 26.480469-14.625 0-26.480468-11.855469-26.480468-26.480469 0-14.628906 11.855468-26.484375 26.480468-26.484375 14.628906 0 26.484375 11.855469 26.484375 26.484375zm0 0"/><path d="m273.65625 300.136719c0 14.628906-11.859375 26.484375-26.484375 26.484375s-26.480469-11.855469-26.480469-26.484375c0-14.625 11.855469-26.480469 26.480469-26.480469s26.484375 11.855469 26.484375 26.480469zm0 0"/><path d="m150.070312 308.964844c-1.15625-.011719-2.292968-.253906-3.355468-.707032-1.070313-.445312-2.054688-1.074218-2.914063-1.851562-.796875-.84375-1.425781-1.832031-1.851562-2.914062-.453125-1.0625-.695313-2.199219-.707031-3.355469.035156-2.335938.949218-4.574219 2.558593-6.265625.859375-.78125 1.84375-1.40625 2.914063-1.855469 3.292968-1.332031 7.058594-.605469 9.621094 1.855469 1.613281 1.691406 2.527343 3.929687 2.5625 6.265625-.015626 1.15625-.253907 2.292969-.707032 3.355469-.425781 1.082031-1.058594 2.070312-1.855468 2.914062-1.691407 1.609375-3.929688 2.523438-6.265626 2.558594zm0 0"/><path d="m194.207031 361.929688c-1.152343-.011719-2.292969-.253907-3.355469-.703126-1.070312-.449218-2.054687-1.078124-2.914062-1.855468-.796875-.84375-1.425781-1.832032-1.851562-2.914063-.453126-1.058593-.691407-2.199219-.707032-3.355469.035156-2.335937.949219-4.574218 2.558594-6.265624.859375-.777344 1.84375-1.40625 2.914062-1.855469 3.292969-1.332031 7.0625-.605469 9.621094 1.855469 1.613282 1.691406 2.527344 3.929687 2.5625 6.265624-.015625 1.15625-.253906 2.296876-.707031 3.355469-.425781 1.082031-1.054687 2.070313-1.855469 2.914063-1.691406 1.613281-3.929687 2.527344-6.265625 2.558594zm0 0"/><path d="m273.65625 26.484375c0 14.625-11.859375 26.480469-26.484375 26.480469s-26.480469-11.855469-26.480469-26.480469c0-14.628906 11.855469-26.484375 26.480469-26.484375s26.484375 11.855469 26.484375 26.484375zm0 0"/><path d="m107.707031 81.222656c0 19.5-15.8125 35.308594-35.3125 35.308594s-35.308593-15.808594-35.308593-35.308594 15.808593-35.308594 35.308593-35.308594 35.3125 15.808594 35.3125 35.308594zm0 0"/><path d="m44.136719 256c0 12.1875-9.878907 22.070312-22.066407 22.070312-12.191406 0-22.070312-9.882812-22.070312-22.070312s9.878906-22.070312 22.070312-22.070312c12.1875 0 22.066407 9.882812 22.066407 22.070312zm0 0"/><path d="m107.707031 430.777344c0 19.5-15.8125 35.308594-35.3125 35.308594s-35.308593-15.808594-35.308593-35.308594 15.808593-35.308594 35.308593-35.308594 35.3125 15.808594 35.3125 35.308594zm0 0"/><path d="m273.65625 485.515625c0 14.628906-11.859375 26.484375-26.484375 26.484375s-26.480469-11.855469-26.480469-26.484375c0-14.625 11.855469-26.480469 26.480469-26.480469s26.484375 11.855469 26.484375 26.480469zm0 0"/><path d="m457.261719 430.777344c0 19.5-15.8125 35.308594-35.3125 35.308594s-35.308594-15.808594-35.308594-35.308594 15.808594-35.308594 35.308594-35.308594 35.3125 15.808594 35.3125 35.308594zm0 0"/><path d="m512 256c0 14.625-11.855469 26.484375-26.484375 26.484375-14.625 0-26.480469-11.859375-26.480469-26.484375s11.855469-26.484375 26.480469-26.484375c14.628906 0 26.484375 11.859375 26.484375 26.484375zm0 0"/><path d="m457.261719 81.222656c0 19.5-15.8125 35.308594-35.3125 35.308594s-35.308594-15.808594-35.308594-35.308594 15.808594-35.308594 35.308594-35.308594 35.3125 15.808594 35.3125 35.308594zm0 0"/></g>
  </symbol>

  <symbol version="1.1" id="search" xmlns="http://www.w3.org/2000/svg" xmlns:xlink="http://www.w3.org/1999/xlink" x="0px" y="0px"
	 viewBox="0 0 288.136 288.136" style="enable-background:new 0 0 288.136 288.136;" xml:space="preserve">
    <path d="M253.094,35.437c-22.634-22.634-52.727-35.099-84.735-35.099s-62.102,12.465-84.735,35.099
    c-38.632,38.632-45.319,97.294-20.067,142.865L9.496,232.364c-12.661,12.661-12.661,33.262,0,45.923
    c6.133,6.134,14.287,9.511,22.961,9.511s16.828-3.377,22.961-9.511l53.821-53.821c17.824,10.141,38.057,15.539,59.12,15.539
    c32.009,0,62.102-12.464,84.735-35.098C299.817,158.183,299.817,82.16,253.094,35.437z M231.882,183.694
    c-16.968,16.967-39.527,26.311-63.522,26.311s-46.555-9.344-63.522-26.311c-35.025-35.026-35.025-92.019,0-127.044
    c16.968-16.968,39.527-26.312,63.522-26.312s46.555,9.344,63.522,26.312C266.907,91.676,266.907,148.668,231.882,183.694z"/>
    <g>
    </g>
    <g>
    </g>
    <g>
    </g>
    <g>
    </g>
    <g>
    </g>
    <g>
    </g>
    <g>
    </g>
    <g>
    </g>
    <g>
    </g>
    <g>
    </g>
    <g>
    </g>
    <g>
    </g>
    <g>
    </g>
    <g>
    </g>
    <g>
    </g>
  </symbol>

  <symbol id="loading" enable-background="new 0 0 512 512" viewBox="0 0 512 512" xmlns="http://www.w3.org/2000/svg">
    <g><path d="m103.113 326.513c-1.853-4.012-3.555-8.109-5.094-12.284-1.986-5.384-7.091-8.978-12.829-8.978h-63.912c-9.026 0-15.516 8.577-13.183 17.296 5.85 21.858 14.509 42.567 25.574 61.713 4.51 7.804 15.165 9.254 21.538 2.88l45.19-45.19c4.064-4.063 5.127-10.221 2.716-15.437z" fill="#91f2c5"/><path d="m98.019 197.77c1.54-4.175 3.241-8.271 5.094-12.283 2.411-5.216 1.348-11.375-2.716-15.438l-45.19-45.19c-6.373-6.373-17.029-4.923-21.539 2.88-11.065 19.145-19.724 39.855-25.574 61.713-2.334 8.719 4.157 17.296 13.183 17.296h63.913c5.739.001 10.843-3.593 12.829-8.978z" fill="#6deeac"/><path d="m305.251 21.278v63.912c0 5.739 3.594 10.844 8.978 12.829 4.175 1.54 8.272 3.241 12.283 5.094 5.216 2.411 11.375 1.348 15.438-2.716l45.19-45.19c6.373-6.373 4.923-17.029-2.88-21.538-19.145-11.065-39.855-19.724-61.713-25.574-8.719-2.332-17.296 4.157-17.296 13.183z" fill="#d8faea"/><path d="m185.488 103.113c4.012-1.853 8.109-3.555 12.283-5.094 5.384-1.986 8.978-7.091 8.978-12.829v-63.912c0-9.026-8.577-15.516-17.296-13.183-21.858 5.85-42.567 14.509-61.713 25.574-7.804 4.51-9.254 15.165-2.88 21.538l45.19 45.19c4.063 4.064 10.221 5.127 15.438 2.716z" fill="#6deeac"/><path d="m326.513 408.887c-4.012 1.854-8.109 3.555-12.283 5.094-5.385 1.986-8.978 7.091-8.978 12.829v63.911c0 9.026 8.577 15.516 17.296 13.183 21.858-5.85 42.567-14.509 61.713-25.574 7.804-4.51 9.254-15.165 2.88-21.538l-45.19-45.19c-4.064-4.064-10.222-5.126-15.438-2.715z" fill="#b1f5d5"/><path d="m408.887 185.488c1.854 4.012 3.555 8.109 5.094 12.283 1.986 5.384 7.091 8.978 12.829 8.978h63.911c9.026 0 15.516-8.577 13.183-17.296-5.85-21.858-14.509-42.567-25.574-61.713-4.51-7.804-15.165-9.254-21.538-2.88l-45.19 45.19c-4.064 4.063-5.126 10.221-2.715 15.438z" fill="#cdf8e4"/><path d="m413.981 314.229c-1.54 4.175-3.241 8.272-5.094 12.284-2.411 5.216-1.348 11.375 2.716 15.438l45.19 45.19c6.373 6.373 17.029 4.923 21.538-2.88 11.065-19.145 19.724-39.855 25.574-61.713 2.334-8.719-4.157-17.296-13.183-17.296h-63.912c-5.739-.001-10.843 3.593-12.829 8.977z" fill="#b1f5d5"/><path d="m197.77 413.981c-4.175-1.54-8.271-3.241-12.283-5.094-5.216-2.411-11.375-1.348-15.438 2.716l-45.19 45.19c-6.373 6.373-4.923 17.029 2.88 21.538 19.145 11.065 39.855 19.724 61.713 25.574 8.719 2.333 17.296-4.157 17.296-13.183v-63.912c.001-5.739-3.593-10.843-8.978-12.829z" fill="#91f2c5"/></g><path d="m350.878 155.015c-.052-2.546-3.157-3.759-4.921-1.921l-14.036 14.624c-21.05-18.22-48.676-29.046-78.844-28.415-61.448 1.283-111.791 50.7-114.141 112.116-2.546 66.551 50.651 121.305 116.635 121.305 20.035 0 38.89-5.05 55.364-13.944 11.755-6.347 14.171-22.163 4.725-31.609l-.577-.577c-6.262-6.262-15.854-7.518-23.665-3.343-11.148 5.959-23.949 9.228-37.542 8.932-40.488-.881-73.545-33.883-74.485-74.37-.996-42.914 33.493-78.013 76.18-78.013 18.303 0 35.097 6.456 48.235 17.212l-19.819 20.649c-1.763 1.837-.426 4.89 2.122 4.837l63.268-1.299c1.578-.033 2.832-1.339 2.799-2.917z" fill="#fcf0b6"/><g><path d="m163.575 251.418c2.223-58.116 47.425-105.48 104.341-111.49-4.864-.512-9.815-.731-14.838-.627-61.447 1.283-111.791 50.7-114.141 112.116-2.546 66.551 50.651 121.305 116.636 121.305 4.145 0 8.236-.229 12.269-.65-60.13-6.332-106.652-58.317-104.267-120.654z" fill="#fbe88c"/></g><g><g><g><path d="m45.613 398.76c-.936 0-1.877-.062-2.822-.186-6.634-.871-12.362-4.7-15.716-10.504-11.527-19.944-20.389-41.327-26.337-63.554-1.738-6.492-.394-13.262 3.686-18.576 4.052-5.279 10.196-8.307 16.854-8.307h63.911c8.869 0 16.896 5.609 19.976 13.959 1.455 3.945 3.09 7.89 4.862 11.726 3.739 8.09 2.033 17.742-4.245 24.019l-45.189 45.188c-4.035 4.037-9.379 6.234-14.98 6.235zm-24.335-85.892c-2.582 0-4.097 1.472-4.771 2.349-1.173 1.528-1.557 3.482-1.054 5.361 5.604 20.938 13.951 41.08 24.811 59.869.966 1.671 2.61 2.772 4.511 3.022 1.102.145 3.217.114 5.046-1.716l45.19-45.189c1.783-1.782 2.26-4.537 1.188-6.855 0-.001 0-.001 0-.002-1.941-4.2-3.733-8.521-5.327-12.844-.881-2.389-3.165-3.995-5.683-3.995z"/></g><g><path d="m85.192 214.366c-.002 0-.002 0-.004 0h-63.911c-6.659 0-12.803-3.028-16.855-8.308-4.08-5.314-5.423-12.084-3.686-18.574 5.948-22.226 14.809-43.608 26.337-63.555 3.354-5.803 9.083-9.631 15.716-10.502 6.603-.866 13.093 1.337 17.804 6.048l45.19 45.189c6.278 6.278 7.983 15.931 4.244 24.021-1.772 3.835-3.408 7.779-4.862 11.722-3.079 8.349-11.106 13.959-19.973 13.959zm-39.605-85.888c-.308 0-.583.022-.812.053-1.901.25-3.546 1.351-4.511 3.021-10.86 18.791-19.208 38.934-24.811 59.87-.502 1.879-.119 3.833 1.054 5.36.673.877 2.189 2.349 4.771 2.349h63.913.001c2.518 0 4.8-1.605 5.682-3.996 1.593-4.32 3.385-8.641 5.327-12.843 1.072-2.32.595-5.075-1.188-6.857l-45.19-45.19c-1.448-1.446-3.074-1.767-4.236-1.767zm52.432 69.293h.01z"/></g><g><path d="m332.26 111.99c-3.031 0-6.085-.641-8.944-1.963-3.832-1.771-7.776-3.407-11.722-4.861-8.351-3.08-13.96-11.108-13.96-19.977v-12.956c0-4.207 3.41-7.617 7.617-7.617s7.617 3.41 7.617 7.617v12.956c0 2.518 1.605 4.801 3.996 5.683 4.323 1.594 8.644 3.386 12.843 5.326 2.322 1.073 5.075.594 6.857-1.188l45.189-45.19c1.829-1.829 1.859-3.947 1.715-5.047-.25-1.901-1.351-3.544-3.021-4.509-18.79-10.86-38.933-19.208-59.871-24.812-1.877-.501-3.833-.118-5.36 1.055-.877.673-2.349 2.189-2.349 4.771v18.494c0 4.207-3.41 7.617-7.617 7.617s-7.617-3.41-7.617-7.617v-18.494c0-6.659 3.027-12.802 8.307-16.854 5.314-4.079 12.083-5.423 18.575-3.687 22.228 5.949 43.61 14.811 63.555 26.338 5.803 3.353 9.631 9.081 10.503 15.714.868 6.604-1.336 13.094-6.048 17.805l-45.189 45.19c-4.059 4.059-9.53 6.206-15.076 6.206z"/></g><g><path d="m179.739 111.99c-5.546 0-11.017-2.147-15.076-6.207l-45.19-45.19c-4.711-4.71-6.916-11.199-6.048-17.803.871-6.633 4.7-12.362 10.503-15.716 19.947-11.528 41.33-20.389 63.555-26.337 6.492-1.738 13.261-.393 18.575 3.687 5.279 4.052 8.307 10.196 8.307 16.854v63.911c0 8.869-5.61 16.896-13.959 19.976-3.947 1.456-7.892 3.092-11.725 4.862-2.857 1.322-5.911 1.963-8.942 1.963zm13.312-96.752c-.542 0-1.089.071-1.63.216-20.936 5.603-41.079 13.951-59.87 24.811-1.671.966-2.772 2.61-3.022 4.511-.145 1.1-.114 3.217 1.715 5.046l45.191 45.19c1.781 1.782 4.537 2.259 6.855 1.188h.001c4.198-1.939 8.518-3.731 12.842-5.326 2.391-.882 3.997-3.166 3.997-5.683v-63.913c0-2.582-1.472-4.097-2.349-4.77-1.087-.835-2.39-1.27-3.73-1.27z"/></g><g><path d="m318.91 512.005c-4.645 0-9.177-1.518-12.969-4.429-5.279-4.052-8.307-10.195-8.307-16.854v-63.911c0-8.87 5.61-16.897 13.96-19.976 3.945-1.456 7.891-3.092 11.724-4.863 8.09-3.739 17.743-2.033 24.02 4.245l45.188 45.189c4.712 4.71 6.917 11.2 6.049 17.804-.872 6.634-4.7 12.361-10.503 15.715-19.945 11.528-41.329 20.39-63.555 26.338-1.86.497-3.743.742-5.607.742zm13.377-96.771c-.872 0-1.753.185-2.578.566-.001 0-.001 0-.002.001-4.197 1.939-8.518 3.731-12.842 5.326-2.391.882-3.996 3.165-3.996 5.683v63.911c0 2.582 1.472 4.097 2.349 4.771 1.528 1.173 3.484 1.555 5.361 1.054 20.937-5.604 41.08-13.95 59.87-24.811 1.671-.966 2.771-2.609 3.021-4.51.145-1.1.113-3.218-1.716-5.047l-45.189-45.19c-1.148-1.147-2.699-1.754-4.278-1.754zm-5.774-6.347h.01z"/></g><g><path d="m490.722 214.366h-63.911c-8.869 0-16.896-5.61-19.976-13.96-1.457-3.948-3.093-7.893-4.863-11.724-3.739-8.09-2.033-17.743 4.245-24.02l45.189-45.189c4.71-4.712 11.197-6.916 17.805-6.048 6.633.872 12.36 4.7 15.714 10.504 11.528 19.946 20.39 41.329 26.338 63.555 1.736 6.491.393 13.261-3.687 18.575-4.052 5.279-10.195 8.307-16.854 8.307zm-24.309-85.889c-1.161 0-2.788.322-4.234 1.769l-45.19 45.19c-1.782 1.782-2.26 4.537-1.188 6.855 0 0 0 .001.001.001 1.938 4.196 3.73 8.516 5.326 12.841.882 2.392 3.165 3.998 5.683 3.998h63.911c2.582 0 4.097-1.472 4.771-2.349 1.173-1.528 1.557-3.482 1.054-5.361-5.603-20.936-13.95-41.079-24.811-59.87-.966-1.671-2.609-2.772-4.51-3.022-.231-.03-.505-.052-.813-.052z"/></g><g><path d="m466.387 398.76c-5.602 0-10.944-2.196-14.98-6.233l-45.189-45.189c-6.278-6.277-7.983-15.931-4.244-24.021 1.771-3.833 3.407-7.777 4.862-11.724 3.078-8.349 11.105-13.958 19.974-13.958h.003 63.91c6.66 0 12.804 3.028 16.856 8.308 4.078 5.314 5.422 12.085 3.685 18.575-5.949 22.227-14.81 43.609-26.338 63.554-3.353 5.802-9.079 9.631-15.713 10.503-.946.123-1.89.185-2.826.185zm-39.577-85.891c-2.518 0-4.8 1.605-5.682 3.995-1.595 4.323-3.387 8.645-5.326 12.843-1.073 2.32-.596 5.076 1.187 6.858l45.189 45.189c1.829 1.828 3.948 1.858 5.049 1.715 1.9-.25 3.543-1.351 4.508-3.021 10.86-18.79 19.208-38.933 24.812-59.87.503-1.88.119-3.833-1.053-5.361-.674-.877-2.189-2.349-4.771-2.349h-63.913zm-12.829 1.36h.01z"/></g><g><path d="m193.09 512.005c-1.865 0-3.747-.245-5.606-.742-22.226-5.948-43.609-14.81-63.556-26.338-5.802-3.353-9.63-9.08-10.502-15.713-.869-6.604 1.335-13.095 6.047-17.806l45.191-45.189c6.277-6.278 15.93-7.983 24.021-4.244 3.829 1.77 7.772 3.405 11.723 4.862 8.35 3.079 13.959 11.106 13.959 19.976v18.743c0 4.207-3.41 7.617-7.617 7.617s-7.617-3.41-7.617-7.617v-18.743c0-2.518-1.606-4.801-3.996-5.683-4.329-1.597-8.649-3.389-12.843-5.327-2.318-1.07-5.074-.595-6.856 1.188l-45.191 45.189c-1.83 1.83-1.86 3.948-1.715 5.048.25 1.901 1.351 3.545 3.021 4.51 18.792 10.86 38.935 19.208 59.871 24.811 1.878.501 3.832.119 5.361-1.054.877-.674 2.349-2.188 2.349-4.771v-12.706c0-4.207 3.41-7.617 7.617-7.617s7.617 3.41 7.617 7.617v12.706c0 6.659-3.028 12.803-8.307 16.854-3.794 2.91-8.328 4.429-12.971 4.429z"/></g></g><g><path d="m255.573 380.341c-34.114 0-65.934-13.54-89.597-38.126-23.651-24.574-35.958-56.923-34.65-91.087 2.51-65.604 55.92-118.069 121.593-119.439 28.447-.607 55.992 8.484 78.372 25.688l9.172-9.556c2.944-3.069 7.407-4.053 11.369-2.505 3.961 1.547 6.576 5.293 6.662 9.545l1.299 63.266c.118 5.774-4.483 10.569-10.257 10.689l-63.27 1.299c-4.261.079-8.101-2.372-9.809-6.265-1.708-3.894-.91-8.393 2.033-11.461l13.762-14.337c-10.911-6.9-23.667-10.633-36.679-10.633-18.621 0-36.044 7.336-49.06 20.658-13.011 13.316-19.938 30.918-19.505 49.562.431 18.585 8.276 35.86 22.092 48.646 3.087 2.857 3.274 7.677.417 10.765-2.856 3.088-7.676 3.273-10.764.417-16.867-15.61-26.447-36.731-26.975-59.474-.528-22.779 7.938-44.287 23.839-60.562 15.906-16.28 37.199-25.246 59.956-25.246 19.302 0 38.146 6.725 53.06 18.935 1.644 1.346 2.651 3.317 2.778 5.438s-.637 4.198-2.108 5.731l-11.864 12.361 47.025-.966-.966-47.025-6.081 6.336c-2.808 2.925-7.415 3.138-10.48.485-20.44-17.693-46.606-27.112-73.7-26.559-57.623 1.203-104.486 47.233-106.688 104.791-1.147 29.988 9.65 58.378 30.404 79.94 20.765 21.574 48.686 33.456 78.621 33.456 18.064 0 35.958-4.506 51.744-13.029 3.501-1.891 5.836-5.217 6.407-9.127.563-3.85-.693-7.638-3.449-10.394l-.576-.577c-3.844-3.844-9.747-4.652-14.689-2.012-12.617 6.744-26.885 10.147-41.298 9.83-8.077-.176-16.069-1.525-23.755-4.013-4.003-1.295-6.198-5.59-4.902-9.592 1.294-4.003 5.588-6.197 9.592-4.902 6.276 2.03 12.802 3.133 19.397 3.276 11.781.246 23.471-2.522 33.786-8.035 10.903-5.825 24.021-3.947 32.642 4.676l.577.577c6.192 6.192 9.018 14.71 7.751 23.369-1.274 8.72-6.467 16.129-14.243 20.327-18.006 9.72-38.402 14.859-58.985 14.859z"/></g></g>
  </symbol>

</svg>
